<svg width="33" height="33" viewBox="0 0 33 33" fill="none" xmlns="http://www.w3.org/2000/svg">
<rect x="0.833252" y="1" width="31" height="31" rx="15.5" fill='transparent' stroke="currentcolor"/>
<path d="M15.5833 10.5C15.4452 10.5 15.3333 10.6119 15.3333 10.75V15.5H10.5833C10.4452 15.5 10.3333 15.6119 10.3333 15.75V17.25C10.3333 17.3881 10.4452 17.5 10.5833 17.5H15.3333V22.25C15.3333 22.3881 15.4452 22.5 15.5833 22.5H17.0833C17.2213 22.5 17.3333 22.3881 17.3333 22.25V17.5H22.0833C22.2213 17.5 22.3333 17.3881 22.3333 17.25V15.75C22.3333 15.6119 22.2213 15.5 22.0833 15.5H17.3333V10.75C17.3333 10.6119 17.2213 10.5 17.0833 10.5H15.5833Z" fill="currentcolor" />
</svg>
