<svg width="57" height="32" viewBox="0 0 57 32" fill="none" xmlns="http://www.w3.org/2000/svg">
<g clip-path="url(#clip0_95_22338)">
<path d="M53.8667 16.5601V16.3467H55.1094V16.5601H54.608V17.9361H54.368V16.5601H53.8667ZM55.6107 16.3467L56.1974 17.1681L56.7787 16.3467H56.9867V17.9467H56.752V16.7681L56.2187 17.5361L55.6854 16.7681V17.9361H55.4507V16.3361L55.6107 16.3467Z" fill="white"/>
<path d="M8.24012 15.968C12.4695 15.968 14.4695 18.688 14.4695 18.688L12.9121 20.2667C12.9121 20.2667 11.4668 18.2187 8.24012 18.2187C7.46507 18.1952 6.69318 18.3275 5.97023 18.6079C5.24728 18.8882 4.58798 19.3109 4.03143 19.8508C3.47488 20.3907 3.0324 21.0369 2.73024 21.751C2.42808 22.4651 2.27238 23.2326 2.27238 24.008C2.27238 24.7834 2.42808 25.5509 2.73024 26.2651C3.0324 26.9792 3.47488 27.6253 4.03143 28.1652C4.58798 28.7052 5.24728 29.1278 5.97023 29.4082C6.69318 29.6885 7.46507 29.8209 8.24012 29.7973C9.78884 29.8191 11.306 29.3588 12.5815 28.48V25.6H8.57079V23.3814H15.0295V29.216C15.0295 29.216 12.8695 32 8.24012 32C6.11415 32 4.07524 31.1555 2.57195 29.6522C1.06866 28.1489 0.224121 26.11 0.224121 23.984C0.224121 21.858 1.06866 19.8191 2.57195 18.3158C4.07524 16.8126 6.11415 15.968 8.24012 15.968Z" fill="white"/>
<path d="M16.6987 24C16.7034 22.9304 16.9214 21.8725 17.3402 20.8882C17.7589 19.904 18.3699 19.0132 19.1373 18.2682C19.9048 17.5231 20.8132 16.9387 21.8094 16.5492C22.8056 16.1597 23.8695 15.973 24.9387 16C26.0077 15.973 27.0714 16.1598 28.0673 16.5493C29.0632 16.9388 29.9713 17.5233 30.7383 18.2685C31.5053 19.0136 32.1157 19.9044 32.5339 20.8886C32.9521 21.8728 33.1695 22.9306 33.1734 24C33.1723 24.3687 33.1365 24.7366 33.0667 25.0987H19.2587C19.5034 26.4258 20.2059 27.625 21.2438 28.4875C22.2817 29.35 23.5892 29.8211 24.9387 29.8187C25.92 29.8683 26.8989 29.6822 27.7934 29.2757C28.6879 28.8693 29.472 28.2544 30.0801 27.4827L32.0001 28.928C30.5014 30.64 28.3894 32 24.9387 32C23.8695 32.027 22.8056 31.8403 21.8094 31.4508C20.8132 31.0613 19.9048 30.4769 19.1373 29.7318C18.3699 28.9868 17.7589 28.096 17.3402 27.1118C16.9214 26.1275 16.7034 25.0696 16.6987 24ZM19.2587 22.9333H30.6347C30.4085 21.5971 29.7125 20.3857 28.672 19.5173C27.6316 18.649 26.3152 18.1809 24.9601 18.1973C23.6043 18.1895 22.2893 18.6602 21.2465 19.5265C20.2036 20.3928 19.4997 21.5992 19.2587 22.9333Z" fill="white"/>
<path d="M33.1733 18.4214V16.192H47.0027V18.4214H41.3227V31.7547H38.8747V18.4214H33.1733Z" fill="white"/>
<path d="M51.8079 18.8853H49.2266V16.2186H51.8079V18.8853ZM51.7332 20.9813V31.776H49.2959V20.9813H51.7332Z" fill="white"/>
</g>
<defs>
<clipPath id="clip0_95_22338">
<rect width="56.9653" height="32" fill="white"/>
</clipPath>
</defs>
</svg>
