<svg width="57" height="32" viewBox="0 0 57 32" fill="none" xmlns="http://www.w3.org/2000/svg">
<path d="M10.016 8C14.2453 8 16.2453 10.72 16.2453 10.72L14.688 12.2987C14.688 12.2987 13.2427 10.2507 10.016 10.2507C9.24095 10.2271 8.46906 10.3595 7.74611 10.6398C7.02316 10.9202 6.36386 11.3429 5.80731 11.8828C5.25076 12.4227 4.80828 13.0689 4.50612 13.783C4.20396 14.4971 4.04826 15.2646 4.04826 16.04C4.04826 16.8154 4.20396 17.5829 4.50612 18.297C4.80828 19.0111 5.25076 19.6573 5.80731 20.1972C6.36386 20.7371 7.02316 21.1598 7.74611 21.4402C8.46906 21.7205 9.24095 21.8529 10.016 21.8293C11.5647 21.8511 13.0819 21.3908 14.3573 20.512V17.632H10.3467V15.4133H16.8053V21.248C16.8053 21.248 14.6453 24.032 10.016 24.032C7.89002 24.032 5.85112 23.1875 4.34783 21.6842C2.84454 20.1809 2 18.142 2 16.016C2 13.89 2.84454 11.8511 4.34783 10.3478C5.85112 8.84454 7.89002 8 10.016 8V8Z" fill="white"/>
<path d="M18.4747 16.032C18.4793 14.9624 18.6974 13.9045 19.1161 12.9202C19.5349 11.936 20.1459 11.0452 20.9133 10.3002C21.6807 9.5551 22.5891 8.9707 23.5853 8.58122C24.5815 8.19175 25.6454 8.00503 26.7147 8.03201C27.7837 8.00502 28.8473 8.19177 29.8432 8.58131C30.8391 8.97085 31.7472 9.55533 32.5142 10.3005C33.2812 11.0456 33.8917 11.9364 34.3098 12.9206C34.728 13.9048 34.9454 14.9627 34.9493 16.032C34.9482 16.4008 34.9125 16.7686 34.8427 17.1307H21.0347C21.2793 18.4578 21.9818 19.657 23.0197 20.5195C24.0576 21.382 25.3652 21.8531 26.7147 21.8507C27.6959 21.9004 28.6748 21.7142 29.5693 21.3078C30.4639 20.9013 31.248 20.2865 31.856 19.5147L33.776 20.96C32.2773 22.672 30.1653 24.032 26.7147 24.032C25.6454 24.059 24.5815 23.8723 23.5853 23.4828C22.5891 23.0933 21.6807 22.5089 20.9133 21.7638C20.1459 21.0188 19.5349 20.128 19.1161 19.1438C18.6974 18.1595 18.4793 17.1016 18.4747 16.032V16.032ZM21.0347 14.9653H32.4107C32.1845 13.6291 31.4884 12.4177 30.448 11.5494C29.4075 10.681 28.0911 10.2129 26.736 10.2293C25.3803 10.2216 24.0653 10.6922 23.0224 11.5585C21.9795 12.4248 21.2757 13.6312 21.0347 14.9653V14.9653Z" fill="white"/>
<path d="M34.9493 10.4533V8.224H48.7787V10.4533H43.0987V23.7867H40.6507V10.4533H34.9493Z" fill="white"/>
<path d="M53.584 10.9173H51.0027V8.25067H53.584V10.9173ZM53.5094 13.0133V23.808H51.072V13.0133H53.5094Z" fill="white"/>
</svg>
